<svg width="38" height="38" viewBox="0 0 38 38" fill="none" xmlns="http://www.w3.org/2000/svg">
<path d="M7.315 28.69C8.93 27.455 10.735 26.4812 12.73 25.7687C14.725 25.0562 16.815 24.7 19 24.7C21.185 24.7 23.275 25.0562 25.27 25.7687C27.265 26.4812 29.07 27.455 30.685 28.69C31.7933 27.3917 32.6562 25.9192 33.2738 24.2725C33.8913 22.6258 34.2 20.8683 34.2 19C34.2 14.7883 32.7196 11.2021 29.7588 8.24125C26.7979 5.28042 23.2117 3.8 19 3.8C14.7883 3.8 11.2021 5.28042 8.24125 8.24125C5.28042 11.2021 3.8 14.7883 3.8 19C3.8 20.8683 4.10875 22.6258 4.72625 24.2725C5.34375 25.9192 6.20667 27.3917 7.315 28.69ZM19 20.9C17.1317 20.9 15.5563 20.2588 14.2738 18.9762C12.9913 17.6938 12.35 16.1183 12.35 14.25C12.35 12.3817 12.9913 10.8063 14.2738 9.52375C15.5563 8.24125 17.1317 7.6 19 7.6C20.8683 7.6 22.4438 8.24125 23.7262 9.52375C25.0088 10.8063 25.65 12.3817 25.65 14.25C25.65 16.1183 25.0088 17.6938 23.7262 18.9762C22.4438 20.2588 20.8683 20.9 19 20.9ZM19 38C16.3717 38 13.9017 37.5012 11.59 36.5037C9.27833 35.5062 7.2675 34.1525 5.5575 32.4425C3.8475 30.7325 2.49375 28.7217 1.49625 26.41C0.49875 24.0983 0 21.6283 0 19C0 16.3717 0.49875 13.9017 1.49625 11.59C2.49375 9.27833 3.8475 7.2675 5.5575 5.5575C7.2675 3.8475 9.27833 2.49375 11.59 1.49625C13.9017 0.49875 16.3717 0 19 0C21.6283 0 24.0983 0.49875 26.41 1.49625C28.7217 2.49375 30.7325 3.8475 32.4425 5.5575C34.1525 7.2675 35.5062 9.27833 36.5037 11.59C37.5012 13.9017 38 16.3717 38 19C38 21.6283 37.5012 24.0983 36.5037 26.41C35.5062 28.7217 34.1525 30.7325 32.4425 32.4425C30.7325 34.1525 28.7217 35.5062 26.41 36.5037C24.0983 37.5012 21.6283 38 19 38ZM19 34.2C20.6783 34.2 22.2617 33.9546 23.75 33.4638C25.2383 32.9729 26.6 32.2683 27.835 31.35C26.6 30.4317 25.2383 29.7271 23.75 29.2362C22.2617 28.7454 20.6783 28.5 19 28.5C17.3217 28.5 15.7383 28.7454 14.25 29.2362C12.7617 29.7271 11.4 30.4317 10.165 31.35C11.4 32.2683 12.7617 32.9729 14.25 33.4638C15.7383 33.9546 17.3217 34.2 19 34.2ZM19 17.1C19.8233 17.1 20.5042 16.8308 21.0425 16.2925C21.5808 15.7542 21.85 15.0733 21.85 14.25C21.85 13.4267 21.5808 12.7458 21.0425 12.2075C20.5042 11.6692 19.8233 11.4 19 11.4C18.1767 11.4 17.4958 11.6692 16.9575 12.2075C16.4192 12.7458 16.15 13.4267 16.15 14.25C16.15 15.0733 16.4192 15.7542 16.9575 16.2925C17.4958 16.8308 18.1767 17.1 19 17.1Z" fill="white"/>
</svg>
