<svg width="20" height="30" viewBox="0 0 20 30" fill="none" xmlns="http://www.w3.org/2000/svg">
<path d="M12.875 30L1.66667 18.3333V15H7.5C8.97222 15 10.2431 14.5208 11.3125 13.5625C12.3819 12.6042 13.0278 11.4167 13.25 10H0V6.66667H12.75C12.2778 5.69444 11.5764 4.89583 10.6458 4.27083C9.71528 3.64583 8.66667 3.33333 7.5 3.33333H0V0H20V3.33333H14.5833C14.9722 3.80556 15.3194 4.31944 15.625 4.875C15.9306 5.43056 16.1667 6.02778 16.3333 6.66667H20V10H16.625C16.4028 12.3611 15.4306 14.3403 13.7083 15.9375C11.9861 17.5347 9.91667 18.3333 7.5 18.3333H6.29167L17.5 30H12.875Z" fill="#FCFCFE"/>
</svg>
