<svg width="38" height="38" viewBox="0 0 38 38" fill="none" xmlns="http://www.w3.org/2000/svg">
<rect width="38" height="38" fill="#F0F1F5"/>
<rect width="3667" height="1413" transform="translate(-726 -71)" fill="#C7C7C7"/>
<path d="M4.22222 38C3.06111 38 2.06713 37.5866 1.24028 36.7597C0.413426 35.9329 0 34.9389 0 33.7778V4.22222C0 3.06111 0.413426 2.06713 1.24028 1.24028C2.06713 0.413426 3.06111 0 4.22222 0H12.6667C13.8278 0 14.8218 0.413426 15.6486 1.24028C16.4755 2.06713 16.8889 3.06111 16.8889 4.22222V33.7778C16.8889 34.9389 16.4755 35.9329 15.6486 36.7597C14.8218 37.5866 13.8278 38 12.6667 38H4.22222ZM25.3333 38C24.1722 38 23.1782 37.5866 22.3514 36.7597C21.5245 35.9329 21.1111 34.9389 21.1111 33.7778V23.2222C21.1111 22.0611 21.5245 21.0671 22.3514 20.2403C23.1782 19.4134 24.1722 19 25.3333 19H33.7778C34.9389 19 35.9329 19.4134 36.7597 20.2403C37.5866 21.0671 38 22.0611 38 23.2222V33.7778C38 34.9389 37.5866 35.9329 36.7597 36.7597C35.9329 37.5866 34.9389 38 33.7778 38H25.3333ZM25.3333 14.7778C24.1722 14.7778 23.1782 14.3644 22.3514 13.5375C21.5245 12.7106 21.1111 11.7167 21.1111 10.5556V4.22222C21.1111 3.06111 21.5245 2.06713 22.3514 1.24028C23.1782 0.413426 24.1722 0 25.3333 0H33.7778C34.9389 0 35.9329 0.413426 36.7597 1.24028C37.5866 2.06713 38 3.06111 38 4.22222V10.5556C38 11.7167 37.5866 12.7106 36.7597 13.5375C35.9329 14.3644 34.9389 14.7778 33.7778 14.7778H25.3333Z" fill="#FCFCFE"/>
</svg>
