<svg width="38" height="38" viewBox="0 0 38 38" fill="none" xmlns="http://www.w3.org/2000/svg">
<path d="M18.905 30.4C19.57 30.4 20.1321 30.1704 20.5913 29.7112C21.0504 29.2521 21.28 28.69 21.28 28.025C21.28 27.36 21.0504 26.7979 20.5913 26.3388C20.1321 25.8796 19.57 25.65 18.905 25.65C18.24 25.65 17.6779 25.8796 17.2188 26.3388C16.7596 26.7979 16.53 27.36 16.53 28.025C16.53 28.69 16.7596 29.2521 17.2188 29.7112C17.6779 30.1704 18.24 30.4 18.905 30.4ZM17.195 23.085H20.71C20.71 22.04 20.8288 21.2167 21.0663 20.615C21.3038 20.0133 21.9767 19.19 23.085 18.145C23.9083 17.3217 24.5575 16.5379 25.0325 15.7937C25.5075 15.0496 25.745 14.155 25.745 13.11C25.745 11.3367 25.0958 9.975 23.7975 9.025C22.4992 8.075 20.9633 7.6 19.19 7.6C17.385 7.6 15.9204 8.075 14.7962 9.025C13.6721 9.975 12.8883 11.115 12.445 12.445L15.58 13.68C15.7383 13.11 16.0946 12.4925 16.6488 11.8275C17.2029 11.1625 18.05 10.83 19.19 10.83C20.2033 10.83 20.9633 11.1071 21.47 11.6613C21.9767 12.2154 22.23 12.825 22.23 13.49C22.23 14.1233 22.04 14.7171 21.66 15.2713C21.28 15.8254 20.805 16.34 20.235 16.815C18.8417 18.05 17.9867 18.9842 17.67 19.6175C17.3533 20.2508 17.195 21.4067 17.195 23.085ZM19 38C16.3717 38 13.9017 37.5012 11.59 36.5037C9.27833 35.5062 7.2675 34.1525 5.5575 32.4425C3.8475 30.7325 2.49375 28.7217 1.49625 26.41C0.49875 24.0983 0 21.6283 0 19C0 16.3717 0.49875 13.9017 1.49625 11.59C2.49375 9.27833 3.8475 7.2675 5.5575 5.5575C7.2675 3.8475 9.27833 2.49375 11.59 1.49625C13.9017 0.49875 16.3717 0 19 0C21.6283 0 24.0983 0.49875 26.41 1.49625C28.7217 2.49375 30.7325 3.8475 32.4425 5.5575C34.1525 7.2675 35.5062 9.27833 36.5037 11.59C37.5012 13.9017 38 16.3717 38 19C38 21.6283 37.5012 24.0983 36.5037 26.41C35.5062 28.7217 34.1525 30.7325 32.4425 32.4425C30.7325 34.1525 28.7217 35.5062 26.41 36.5037C24.0983 37.5012 21.6283 38 19 38ZM19 34.2C23.2433 34.2 26.8375 32.7275 29.7825 29.7825C32.7275 26.8375 34.2 23.2433 34.2 19C34.2 14.7567 32.7275 11.1625 29.7825 8.2175C26.8375 5.2725 23.2433 3.8 19 3.8C14.7567 3.8 11.1625 5.2725 8.2175 8.2175C5.2725 11.1625 3.8 14.7567 3.8 19C3.8 23.2433 5.2725 26.8375 8.2175 29.7825C11.1625 32.7275 14.7567 34.2 19 34.2Z" fill="white"/>
</svg>
