<svg width="38" height="23" viewBox="0 0 38 23" fill="none" xmlns="http://www.w3.org/2000/svg">
<path d="M9.89284 9.68548C9.32072 8.51647 9.01835 7.2037 9.01835 5.88846C9.01835 5.16846 9.12245 4.42863 9.33559 3.62974C9.43102 3.27036 9.55081 2.92668 9.68547 2.59332C9.16871 2.31119 8.60073 2.1377 7.99143 2.1377C5.73189 2.1377 3.90277 4.26629 3.90277 6.89513C3.90277 8.73416 4.80163 10.3258 6.1144 11.1176L0.572941 13.6969C0.227607 13.8592 0 14.2492 0 14.685V19.0587C0 19.6448 0.409362 20.1199 0.912905 20.1199H4.18821V15.5306C4.18821 14.1934 4.93258 12.981 6.08796 12.4403L10.327 10.4662C10.17 10.2167 10.025 9.95605 9.89284 9.68548Z" fill="white"/>
<path d="M23.1872 4.85034H37.2699C37.2707 4.85034 37.2715 4.85034 37.2724 4.85034C37.6743 4.85034 37.9998 4.52442 37.9998 4.1229V1.46639C37.9998 1.06446 37.6739 0.738957 37.2724 0.738957C37.2715 0.738957 37.2707 0.739371 37.2699 0.739371V0.737305H21.5332C22.1999 1.61055 22.708 2.64862 22.9897 3.80855C23.0785 4.17578 23.143 4.51905 23.1872 4.85034Z" fill="white"/>
<path d="M38.0002 17.918C38.0002 17.5161 37.6743 17.1906 37.2728 17.1906C37.272 17.1906 37.2711 17.191 37.2703 17.191V17.189H28.0909V20.1198V20.9434C28.0909 21.0645 28.0842 21.1839 28.0723 21.3016H37.2703C37.2711 21.3016 37.272 21.3016 37.2728 21.3016C37.6747 21.3016 38.0002 20.9757 38.0002 20.5742V17.918Z" fill="white"/>
<path d="M37.2725 8.96503C37.2717 8.96503 37.2708 8.96544 37.27 8.96544V8.96338H22.6945C22.6288 9.13646 22.5594 9.30871 22.4822 9.47932C22.3318 9.8106 22.1629 10.1274 21.9766 10.4282L26.2263 12.4556C26.5489 12.6117 26.8348 12.8261 27.0847 13.0764H37.27C37.2708 13.0764 37.2717 13.0764 37.2725 13.0764C37.6744 13.0764 37.9999 12.7505 37.9999 12.349V9.69246C37.9999 9.29054 37.674 8.96503 37.2725 8.96503Z" fill="white"/>
<path d="M25.3294 14.3103L20.5579 12.0342L18.5401 11.0718C19.4216 10.5166 20.137 9.65986 20.6054 8.62758C20.9768 7.80803 21.1982 6.87984 21.1982 5.88845C21.1982 5.33162 21.1102 4.80329 20.9867 4.29272C20.3865 1.82127 18.4562 0 16.1388 0C13.8652 0 11.9642 1.756 11.3273 4.15764C11.1802 4.70828 11.0786 5.28122 11.0786 5.88803C11.0786 6.94221 11.3248 7.92451 11.7432 8.77959C12.227 9.77098 12.9437 10.5885 13.8161 11.1139L11.8837 12.0136L6.9573 14.3078C6.52894 14.5082 6.24805 14.9911 6.24805 15.5301V20.1199V20.9435C6.24805 21.6689 6.75366 22.2575 7.37782 22.2575H24.8994C25.5236 22.2575 26.0292 21.6693 26.0292 20.9435V20.1199V15.5305C26.03 14.9931 25.7532 14.5152 25.3294 14.3103Z" fill="white"/>
</svg>
