<svg width="41" height="49" viewBox="0 0 41 49" fill="none" xmlns="http://www.w3.org/2000/svg">
<circle cx="29.5" cy="11.5" r="11.5" fill="#DA6F7E"/>
<path d="M31.72 16H26.528V15.197L28.585 13.118C28.981 12.722 29.3147 12.37 29.586 12.062C29.8573 11.754 30.0627 11.4533 30.202 11.16C30.3413 10.8593 30.411 10.533 30.411 10.181C30.411 9.74833 30.2827 9.422 30.026 9.202C29.7693 8.97467 29.4357 8.861 29.025 8.861C28.6437 8.861 28.3063 8.927 28.013 9.059C27.727 9.191 27.4337 9.37433 27.133 9.609L26.616 8.96C26.8213 8.784 27.045 8.62633 27.287 8.487C27.5363 8.34767 27.804 8.23767 28.09 8.157C28.3833 8.07633 28.695 8.036 29.025 8.036C29.5163 8.036 29.938 8.12033 30.29 8.289C30.642 8.45767 30.9133 8.69967 31.104 9.015C31.302 9.323 31.401 9.69333 31.401 10.126C31.401 10.434 31.3533 10.7273 31.258 11.006C31.1627 11.2773 31.027 11.545 30.851 11.809C30.675 12.073 30.4623 12.3407 30.213 12.612C29.9637 12.8833 29.6887 13.1657 29.388 13.459L27.749 15.076V15.12H31.72V16Z" fill="white"/>
<path d="M0 42.875V39.125H3.75V26C3.75 23.4062 4.53125 21.1016 6.09375 19.0859C7.65625 17.0703 9.6875 15.75 12.1875 15.125V13.8125C12.1875 13.0312 12.4609 12.3672 13.0078 11.8203C13.5547 11.2734 14.2188 11 15 11C15.7812 11 16.4453 11.2734 16.9922 11.8203C17.5391 12.3672 17.8125 13.0312 17.8125 13.8125V15.125C20.3125 15.75 22.3438 17.0703 23.9062 19.0859C25.4688 21.1016 26.25 23.4062 26.25 26V39.125H30V42.875H0ZM15 48.5C13.9688 48.5 13.0859 48.1328 12.3516 47.3984C11.6172 46.6641 11.25 45.7812 11.25 44.75H18.75C18.75 45.7812 18.3828 46.6641 17.6484 47.3984C16.9141 48.1328 16.0312 48.5 15 48.5ZM7.5 39.125H22.5V26C22.5 23.9375 21.7656 22.1719 20.2969 20.7031C18.8281 19.2344 17.0625 18.5 15 18.5C12.9375 18.5 11.1719 19.2344 9.70312 20.7031C8.23438 22.1719 7.5 23.9375 7.5 26V39.125Z" fill="#1C1B1F"/>
</svg>
