<svg width="30" height="38" viewBox="0 0 30 38" fill="none" xmlns="http://www.w3.org/2000/svg">
<path d="M0 31.875V28.125H3.75V15C3.75 12.4062 4.53125 10.1016 6.09375 8.08594C7.65625 6.07031 9.6875 4.75 12.1875 4.125V2.8125C12.1875 2.03125 12.4609 1.36719 13.0078 0.820312C13.5547 0.273437 14.2188 0 15 0C15.7812 0 16.4453 0.273437 16.9922 0.820312C17.5391 1.36719 17.8125 2.03125 17.8125 2.8125V4.125C20.3125 4.75 22.3438 6.07031 23.9062 8.08594C25.4688 10.1016 26.25 12.4062 26.25 15V28.125H30V31.875H0ZM15 37.5C13.9688 37.5 13.0859 37.1328 12.3516 36.3984C11.6172 35.6641 11.25 34.7812 11.25 33.75H18.75C18.75 34.7812 18.3828 35.6641 17.6484 36.3984C16.9141 37.1328 16.0312 37.5 15 37.5ZM7.5 28.125H22.5V15C22.5 12.9375 21.7656 11.1719 20.2969 9.70312C18.8281 8.23438 17.0625 7.5 15 7.5C12.9375 7.5 11.1719 8.23438 9.70312 9.70312C8.23438 11.1719 7.5 12.9375 7.5 15V28.125Z" fill="#1C1B1F"/>
</svg>
