<svg width="281" height="281" viewBox="0 0 281 281" fill="none" xmlns="http://www.w3.org/2000/svg">
<path d="M0 17C0 7.61116 7.61116 0 17 0H264C273.389 0 281 7.61116 281 17V264C281 273.389 273.389 281 264 281H17C7.61116 281 0 273.389 0 264V17Z" fill="#C9E4C2"/>
<path d="M159.136 48.2269L165.863 49.7786L171.304 51.8222L175.704 54.1644L179.054 56.6705L181.587 59.323L183.449 61.9697L184.64 64.5402L185.373 66.8824L185.691 68.8967L185.842 70.4835L185.753 71.4906V113.181L185.373 118.094L184.411 122.398L182.84 125.999L180.916 128.956L178.679 131.363L176.236 133.312L173.613 134.811L170.99 135.906L168.547 136.703L166.31 137.218L164.386 137.552L162.815 137.71H118.282L113.159 138.102L108.759 139.174L105.029 140.913L101.97 143.015L99.4929 145.521L97.4798 148.232L95.998 151.072L94.8852 153.935L94.1303 156.676L93.6102 159.182L93.3139 161.284L93.1741 162.929V186.814H76.5383L74.9725 186.562L72.87 186.017L70.5158 185.104L67.8932 183.699L65.2147 181.661L62.5362 178.85L59.9137 175.249L57.5259 170.641L55.4234 164.944L53.88 158.081L52.8343 149.878L52.4541 140.275L52.8959 130.759L54.0869 122.65L55.8931 115.852L58.2808 110.301L60.9649 105.85L63.9342 102.431L67.0824 99.8369L70.1971 97.9807L73.1943 96.7335L75.8784 95.9371L78.2662 95.539L80.0388 95.4745H81.2298L81.6996 95.539H142.511V89.0745H98.9672L98.9057 67.6026L98.7659 64.7042L99.1462 62.0517L99.957 59.6451L101.21 57.4434L103.072 55.435L105.403 53.6315L108.222 52.0798L111.515 50.6452L115.301 49.4917L119.64 48.549L124.382 47.7819L129.683 47.2959L135.426 46.9914L141.689 46.8333L151.151 47.2315L159.136 48.2269ZM112.186 63.6853L110.464 66.2442L109.855 69.4471L110.464 72.6559L112.186 75.3025L114.63 77.0416L117.689 77.7443L120.748 77.0416L123.191 75.3025L124.914 72.6559L125.523 69.4471L124.914 66.2442L123.191 63.6853L120.748 61.9755L117.689 61.2787L114.63 61.9755L112.186 63.6853ZM209.781 94.5143L211.845 95.0061L214.232 95.9196L216.855 97.3249L219.533 99.427L222.218 102.173L224.835 105.833L227.222 110.429L229.297 116.138L230.868 123.03L231.914 131.14L232.294 140.743L231.83 150.352L230.628 158.462L228.855 165.166L226.467 170.717L223.783 175.167L220.786 178.68L217.671 181.239L214.523 183.131L211.554 184.378L208.87 185.08L206.482 185.479L204.709 185.625L203.518 185.537H142.209V191.937H185.753L185.842 213.503L185.982 216.308L185.602 218.96L184.791 221.367L183.511 223.621L181.649 225.571L179.35 227.468L176.526 229.02L173.233 230.361L169.447 231.514L165.108 232.521L160.338 233.224L155.065 233.768L149.294 234.073L143.031 234.167L133.57 233.862L125.59 232.761L118.885 231.21L113.445 229.26L109.044 226.912L105.694 224.318L103.161 221.665L101.299 219.019L100.108 216.448L99.3475 214.106L99.0567 212.156L98.9057 210.593L98.9672 209.591V167.901L99.3475 162.894L100.337 158.655L101.881 155.089L103.832 152.097L106.069 149.632L108.524 147.74L111.141 146.177L113.735 145.082L116.213 144.286L118.455 143.835L120.373 143.53L122.906 143.278H166.45L171.6 142.886L176.001 141.815L179.731 140.169L182.789 137.973L185.244 135.467L187.252 132.756L188.767 129.916L189.88 127.112L190.635 124.395L191.166 121.894L191.457 119.699L191.597 118.053V94.1688H207.181L208.232 94.2332L209.781 94.5143ZM161.518 205.768L159.796 208.362L159.214 211.57L159.796 214.773L161.518 217.332L163.995 219.13L167.054 219.739L170.113 219.13L172.556 217.332L174.279 214.773L174.888 211.57L174.279 208.362L172.556 205.768L170.113 203.97L167.054 203.361L163.995 203.97L161.518 205.768Z" fill="#63AB4A"/>
</svg>
