<svg width="39" height="38" viewBox="0 0 39 38" fill="none" xmlns="http://www.w3.org/2000/svg">
<path d="M13.87 38L13.11 31.92C12.6983 31.7617 12.3104 31.5717 11.9462 31.35C11.5821 31.1283 11.2258 30.8908 10.8775 30.6375L5.225 33.0125L0 23.9875L4.8925 20.2825C4.86083 20.0608 4.845 19.8471 4.845 19.6413V18.3588C4.845 18.1529 4.86083 17.9392 4.8925 17.7175L0 14.0125L5.225 4.9875L10.8775 7.3625C11.2258 7.10917 11.59 6.87167 11.97 6.65C12.35 6.42833 12.73 6.23833 13.11 6.08L13.87 0H24.32L25.08 6.08C25.4917 6.23833 25.8796 6.42833 26.2438 6.65C26.6079 6.87167 26.9642 7.10917 27.3125 7.3625L32.965 4.9875L38.19 14.0125L33.2975 17.7175C33.3292 17.9392 33.345 18.1529 33.345 18.3588V19.6413C33.345 19.8471 33.3133 20.0608 33.25 20.2825L38.1425 23.9875L32.9175 33.0125L27.3125 30.6375C26.9642 30.8908 26.6 31.1283 26.22 31.35C25.84 31.5717 25.46 31.7617 25.08 31.92L24.32 38H13.87ZM19.19 25.65C21.0267 25.65 22.5942 25.0008 23.8925 23.7025C25.1908 22.4042 25.84 20.8367 25.84 19C25.84 17.1633 25.1908 15.5958 23.8925 14.2975C22.5942 12.9992 21.0267 12.35 19.19 12.35C17.3217 12.35 15.7463 12.9992 14.4638 14.2975C13.1813 15.5958 12.54 17.1633 12.54 19C12.54 20.8367 13.1813 22.4042 14.4638 23.7025C15.7463 25.0008 17.3217 25.65 19.19 25.65ZM19.19 21.85C18.3983 21.85 17.7254 21.5729 17.1713 21.0187C16.6171 20.4646 16.34 19.7917 16.34 19C16.34 18.2083 16.6171 17.5354 17.1713 16.9812C17.7254 16.4271 18.3983 16.15 19.19 16.15C19.9817 16.15 20.6546 16.4271 21.2088 16.9812C21.7629 17.5354 22.04 18.2083 22.04 19C22.04 19.7917 21.7629 20.4646 21.2088 21.0187C20.6546 21.5729 19.9817 21.85 19.19 21.85ZM17.195 34.2H20.9475L21.6125 29.165C22.5942 28.9117 23.5046 28.5396 24.3438 28.0487C25.1829 27.5579 25.9508 26.9642 26.6475 26.2675L31.35 28.215L33.2025 24.985L29.1175 21.8975C29.2758 21.4542 29.3867 20.9871 29.45 20.4963C29.5133 20.0054 29.545 19.5067 29.545 19C29.545 18.4933 29.5133 17.9946 29.45 17.5038C29.3867 17.0129 29.2758 16.5458 29.1175 16.1025L33.2025 13.015L31.35 9.785L26.6475 11.78C25.9508 11.0517 25.1829 10.4421 24.3438 9.95125C23.5046 9.46042 22.5942 9.08833 21.6125 8.835L20.995 3.8H17.2425L16.5775 8.835C15.5958 9.08833 14.6854 9.46042 13.8463 9.95125C13.0071 10.4421 12.2392 11.0358 11.5425 11.7325L6.84 9.785L4.9875 13.015L9.0725 16.055C8.91417 16.53 8.80333 17.005 8.74 17.48C8.67667 17.955 8.645 18.4617 8.645 19C8.645 19.5067 8.67667 19.9975 8.74 20.4725C8.80333 20.9475 8.91417 21.4225 9.0725 21.8975L4.9875 24.985L6.84 28.215L11.5425 26.22C12.2392 26.9483 13.0071 27.5579 13.8463 28.0487C14.6854 28.5396 15.5958 28.9117 16.5775 29.165L17.195 34.2Z" fill="white"/>
</svg>
